<svg xmlns="http://www.w3.org/2000/svg" xmlns:xlink="http://www.w3.org/1999/xlink" width="500" zoomAndPan="magnify" viewBox="0 0 375 374.999991" height="500" preserveAspectRatio="xMidYMid meet" version="1.0"><defs><clipPath id="1570b69045"><path d="M 1.515625 15.019531 L 347 15.019531 L 347 360 L 1.515625 360 Z M 1.515625 15.019531 " clip-rule="nonzero"/></clipPath></defs><rect x="-37.5" width="450" fill="#ffffff" y="-37.499999" height="449.999989" fill-opacity="1"/><rect x="-37.5" width="450" fill="#ffffff" y="-37.499999" height="449.999989" fill-opacity="1"/><path fill="#d9d9d9" d="M 315.183594 287.097656 C 315.183594 287.097656 326.929688 314.875 346.878906 314.046875 C 366.828125 313.144531 374.585938 305.992188 374.585938 305.992188 L 368.484375 352.21875 C 368.484375 352.21875 309.085938 353.875 305.023438 300.121094 C 304.269531 289.882812 315.183594 287.097656 315.183594 287.097656 Z M 315.183594 287.097656 " fill-opacity="1" fill-rule="nonzero"/><path fill="#d9d9d9" d="M 292.902344 187.496094 C 292.902344 189.433594 292.851562 191.371094 292.757812 193.308594 C 292.664062 195.246094 292.519531 197.179688 292.332031 199.109375 C 292.140625 201.039062 291.902344 202.964844 291.617188 204.882812 C 291.332031 206.800781 291.003906 208.710938 290.625 210.613281 C 290.246094 212.515625 289.820312 214.40625 289.347656 216.289062 C 288.878906 218.167969 288.359375 220.039062 287.796875 221.894531 C 287.234375 223.75 286.628906 225.589844 285.972656 227.417969 C 285.320312 229.242188 284.621094 231.050781 283.878906 232.84375 C 283.136719 234.632812 282.351562 236.40625 281.523438 238.160156 C 280.695312 239.914062 279.824219 241.644531 278.910156 243.355469 C 277.996094 245.066406 277.039062 246.75 276.042969 248.414062 C 275.042969 250.078125 274.007812 251.714844 272.929688 253.328125 C 271.851562 254.941406 270.738281 256.527344 269.582031 258.085938 C 268.425781 259.640625 267.234375 261.171875 266.003906 262.667969 C 264.773438 264.167969 263.507812 265.636719 262.203125 267.074219 C 260.902344 268.511719 259.566406 269.914062 258.195312 271.285156 C 256.820312 272.65625 255.417969 273.992188 253.980469 275.296875 C 252.542969 276.597656 251.078125 277.863281 249.578125 279.09375 C 248.078125 280.324219 246.550781 281.519531 244.992188 282.671875 C 243.433594 283.828125 241.847656 284.945312 240.238281 286.023438 C 238.625 287.101562 236.988281 288.136719 235.324219 289.132812 C 233.660156 290.132812 231.972656 291.085938 230.261719 292 C 228.550781 292.914062 226.820312 293.785156 225.066406 294.617188 C 223.3125 295.445312 221.542969 296.230469 219.75 296.972656 C 217.957031 297.714844 216.148438 298.414062 214.324219 299.066406 C 212.496094 299.71875 210.65625 300.328125 208.800781 300.890625 C 206.945312 301.453125 205.078125 301.96875 203.195312 302.441406 C 201.316406 302.914062 199.421875 303.335938 197.519531 303.714844 C 195.617188 304.09375 193.707031 304.425781 191.789062 304.710938 C 189.871094 304.996094 187.949219 305.230469 186.019531 305.421875 C 184.089844 305.613281 182.15625 305.753906 180.21875 305.851562 C 178.28125 305.945312 176.34375 305.992188 174.402344 305.992188 C 172.464844 305.992188 170.527344 305.945312 168.589844 305.851562 C 166.652344 305.753906 164.71875 305.613281 162.789062 305.421875 C 160.859375 305.230469 158.933594 304.996094 157.015625 304.710938 C 155.097656 304.425781 153.1875 304.09375 151.285156 303.714844 C 149.382812 303.335938 147.492188 302.914062 145.609375 302.441406 C 143.730469 301.96875 141.859375 301.453125 140.003906 300.890625 C 138.148438 300.328125 136.308594 299.71875 134.484375 299.066406 C 132.65625 298.414062 130.847656 297.714844 129.054688 296.972656 C 127.265625 296.230469 125.492188 295.445312 123.738281 294.617188 C 121.984375 293.785156 120.253906 292.914062 118.542969 292 C 116.832031 291.085938 115.148438 290.132812 113.484375 289.132812 C 111.820312 288.136719 110.183594 287.101562 108.570312 286.023438 C 106.957031 284.945312 105.371094 283.828125 103.8125 282.671875 C 102.257812 281.519531 100.726562 280.324219 99.230469 279.09375 C 97.730469 277.863281 96.261719 276.597656 94.824219 275.296875 C 93.386719 273.992188 91.984375 272.65625 90.613281 271.285156 C 89.242188 269.914062 87.90625 268.511719 86.601562 267.074219 C 85.300781 265.636719 84.035156 264.167969 82.804688 262.667969 C 81.574219 261.171875 80.378906 259.640625 79.226562 258.085938 C 78.070312 256.527344 76.953125 254.941406 75.875 253.328125 C 74.796875 251.714844 73.761719 250.078125 72.765625 248.414062 C 71.765625 246.75 70.8125 245.066406 69.898438 243.355469 C 68.984375 241.644531 68.113281 239.914062 67.28125 238.160156 C 66.453125 236.40625 65.667969 234.632812 64.925781 232.84375 C 64.183594 231.050781 63.484375 229.242188 62.832031 227.417969 C 62.179688 225.589844 61.570312 223.75 61.007812 221.894531 C 60.445312 220.039062 59.929688 218.167969 59.457031 216.289062 C 58.984375 214.40625 58.5625 212.515625 58.183594 210.613281 C 57.804688 208.710938 57.472656 206.800781 57.1875 204.882812 C 56.902344 202.964844 56.667969 201.039062 56.476562 199.109375 C 56.285156 197.179688 56.144531 195.246094 56.046875 193.308594 C 55.953125 191.371094 55.90625 189.433594 55.90625 187.496094 C 55.90625 185.554688 55.953125 183.617188 56.046875 181.679688 C 56.144531 179.742188 56.285156 177.808594 56.476562 175.878906 C 56.667969 173.949219 56.902344 172.027344 57.1875 170.109375 C 57.472656 168.191406 57.804688 166.28125 58.183594 164.378906 C 58.5625 162.476562 58.984375 160.582031 59.457031 158.703125 C 59.929688 156.820312 60.445312 154.953125 61.007812 153.097656 C 61.570312 151.242188 62.179688 149.402344 62.832031 147.574219 C 63.484375 145.75 64.183594 143.941406 64.925781 142.148438 C 65.667969 140.355469 66.453125 138.585938 67.28125 136.832031 C 68.113281 135.078125 68.984375 133.347656 69.898438 131.636719 C 70.8125 129.925781 71.765625 128.238281 72.765625 126.574219 C 73.761719 124.910156 74.796875 123.273438 75.875 121.660156 C 76.953125 120.050781 78.070312 118.464844 79.226562 116.90625 C 80.378906 115.347656 81.574219 113.820312 82.804688 112.320312 C 84.035156 110.820312 85.300781 109.355469 86.601562 107.917969 C 87.90625 106.480469 89.242188 105.078125 90.613281 103.703125 C 91.984375 102.332031 93.386719 100.996094 94.824219 99.695312 C 96.261719 98.390625 97.730469 97.125 99.230469 95.894531 C 100.726562 94.664062 102.257812 93.472656 103.8125 92.316406 C 105.371094 91.160156 106.957031 90.046875 108.570312 88.96875 C 110.183594 87.890625 111.820312 86.855469 113.484375 85.855469 C 115.148438 84.859375 116.832031 83.902344 118.542969 82.988281 C 120.253906 82.074219 121.984375 81.203125 123.738281 80.375 C 125.492188 79.546875 127.265625 78.761719 129.054688 78.019531 C 130.847656 77.277344 132.65625 76.578125 134.484375 75.925781 C 136.308594 75.269531 138.148438 74.664062 140.003906 74.101562 C 141.859375 73.539062 143.730469 73.019531 145.609375 72.550781 C 147.492188 72.078125 149.382812 71.652344 151.285156 71.273438 C 153.1875 70.894531 155.097656 70.566406 157.015625 70.28125 C 158.933594 69.996094 160.859375 69.757812 162.789062 69.566406 C 164.71875 69.378906 166.652344 69.234375 168.589844 69.140625 C 170.527344 69.046875 172.464844 68.996094 174.402344 68.996094 C 176.34375 68.996094 178.28125 69.046875 180.21875 69.140625 C 182.15625 69.234375 184.089844 69.378906 186.019531 69.566406 C 187.949219 69.757812 189.871094 69.996094 191.789062 70.28125 C 193.707031 70.566406 195.617188 70.894531 197.519531 71.273438 C 199.421875 71.652344 201.316406 72.078125 203.195312 72.550781 C 205.078125 73.019531 206.945312 73.539062 208.800781 74.101562 C 210.65625 74.664062 212.496094 75.269531 214.324219 75.925781 C 216.148438 76.578125 217.957031 77.277344 219.75 78.019531 C 221.542969 78.761719 223.3125 79.546875 225.066406 80.375 C 226.820312 81.203125 228.550781 82.074219 230.261719 82.988281 C 231.972656 83.902344 233.660156 84.859375 235.324219 85.855469 C 236.988281 86.855469 238.625 87.890625 240.238281 88.96875 C 241.847656 90.046875 243.433594 91.160156 244.992188 92.316406 C 246.550781 93.472656 248.078125 94.664062 249.578125 95.894531 C 251.078125 97.125 252.542969 98.390625 253.980469 99.695312 C 255.417969 100.996094 256.820312 102.332031 258.195312 103.703125 C 259.566406 105.078125 260.902344 106.480469 262.203125 107.917969 C 263.507812 109.355469 264.773438 110.820312 266.003906 112.320312 C 267.234375 113.820312 268.425781 115.347656 269.582031 116.90625 C 270.738281 118.464844 271.851562 120.050781 272.929688 121.660156 C 274.007812 123.273438 275.042969 124.910156 276.042969 126.574219 C 277.039062 128.238281 277.996094 129.925781 278.910156 131.636719 C 279.824219 133.347656 280.695312 135.078125 281.523438 136.832031 C 282.351562 138.585938 283.136719 140.355469 283.878906 142.148438 C 284.621094 143.941406 285.320312 145.75 285.972656 147.574219 C 286.628906 149.402344 287.234375 151.242188 287.796875 153.097656 C 288.359375 154.953125 288.878906 156.820312 289.347656 158.703125 C 289.820312 160.582031 290.246094 162.476562 290.625 164.378906 C 291.003906 166.28125 291.332031 168.191406 291.617188 170.109375 C 291.902344 172.027344 292.140625 173.949219 292.332031 175.878906 C 292.519531 177.808594 292.664062 179.742188 292.757812 181.679688 C 292.851562 183.617188 292.902344 185.554688 292.902344 187.496094 Z M 292.902344 187.496094 " fill-opacity="1" fill-rule="nonzero"/><g clip-path="url(#1570b69045)"><path fill="#ff3131" d="M 174.402344 15.019531 C 79.167969 15.019531 1.925781 92.261719 1.925781 187.496094 C 1.925781 282.730469 79.167969 359.972656 174.402344 359.972656 C 269.636719 359.972656 346.878906 282.730469 346.878906 187.496094 C 346.878906 92.261719 269.636719 15.019531 174.402344 15.019531 Z M 174.402344 45.660156 C 200.527344 45.660156 221.605469 66.816406 221.605469 92.863281 C 221.605469 118.910156 200.453125 140.066406 174.402344 140.066406 C 148.355469 140.066406 127.199219 118.910156 127.199219 92.863281 C 127.199219 66.816406 148.28125 45.660156 174.402344 45.660156 Z M 205.195312 182 C 205.195312 185.238281 202.632812 187.796875 199.398438 187.796875 C 196.160156 187.796875 193.601562 185.238281 193.601562 182 C 193.601562 178.761719 196.160156 176.203125 199.398438 176.203125 C 202.632812 176.203125 205.195312 178.761719 205.195312 182 Z M 180.199219 156.929688 C 180.199219 160.167969 177.640625 162.726562 174.402344 162.726562 C 171.164062 162.726562 168.605469 160.167969 168.605469 156.929688 C 168.605469 153.691406 171.164062 151.132812 174.402344 151.132812 C 177.566406 151.132812 180.199219 153.769531 180.199219 156.929688 Z M 155.128906 182 C 155.128906 185.238281 152.570312 187.796875 149.332031 187.796875 C 146.097656 187.796875 143.535156 185.238281 143.535156 182 C 143.535156 178.761719 146.097656 176.203125 149.332031 176.203125 C 152.570312 176.203125 155.128906 178.761719 155.128906 182 Z M 37.535156 160.921875 C 37.535156 134.871094 58.691406 113.714844 84.738281 113.714844 C 110.789062 113.714844 131.941406 134.871094 131.941406 160.921875 C 131.941406 186.96875 110.789062 208.125 84.738281 208.125 C 58.691406 208.125 37.535156 187.042969 37.535156 160.921875 Z M 117.636719 310.585938 C 91.589844 310.585938 70.433594 289.429688 70.433594 263.382812 C 70.433594 237.332031 91.589844 216.179688 117.636719 216.179688 C 143.761719 216.179688 164.84375 237.332031 164.84375 263.382812 C 164.84375 289.429688 143.6875 310.585938 117.636719 310.585938 Z M 161.226562 182 C 161.226562 174.695312 167.101562 168.824219 174.402344 168.824219 C 181.707031 168.824219 187.578125 174.695312 187.578125 182 C 187.578125 189.300781 181.707031 195.175781 174.402344 195.175781 C 167.101562 195.175781 161.226562 189.226562 161.226562 182 Z M 174.402344 212.789062 C 171.164062 212.789062 168.605469 210.230469 168.605469 206.992188 C 168.605469 203.757812 171.164062 201.195312 174.402344 201.195312 C 177.640625 201.195312 180.199219 203.757812 180.199219 206.992188 C 180.199219 210.230469 177.566406 212.789062 174.402344 212.789062 Z M 230.265625 310.585938 C 204.214844 310.585938 183.0625 289.429688 183.0625 263.382812 C 183.0625 237.332031 204.214844 216.179688 230.265625 216.179688 C 256.386719 216.179688 277.46875 237.332031 277.46875 263.382812 C 277.542969 289.429688 256.386719 310.585938 230.265625 310.585938 Z M 263.992188 208.199219 C 237.941406 208.199219 216.789062 187.042969 216.789062 160.996094 C 216.789062 134.945312 237.941406 113.714844 263.992188 113.714844 C 290.113281 113.714844 311.195312 134.871094 311.195312 160.921875 C 311.195312 186.96875 290.113281 208.199219 263.992188 208.199219 Z M 263.992188 208.199219 " fill-opacity="1" fill-rule="nonzero"/></g><path fill="#ffffff" d="M 175.53125 346.269531 C 87.976562 346.269531 16.683594 275.050781 16.683594 187.421875 C 16.683594 99.863281 87.902344 28.570312 175.53125 28.570312 C 263.089844 28.570312 334.382812 99.789062 334.382812 187.421875 C 334.308594 275.050781 263.089844 346.269531 175.53125 346.269531 Z M 175.53125 36.171875 C 92.117188 36.171875 24.210938 104.082031 24.210938 187.496094 C 24.210938 270.910156 92.117188 338.816406 175.53125 338.816406 C 258.949219 338.816406 326.855469 270.910156 326.855469 187.496094 C 326.777344 104.082031 258.949219 36.171875 175.53125 36.171875 Z M 175.53125 36.171875 " fill-opacity="1" fill-rule="nonzero"/></svg>